<?xml version="1.0" encoding="utf-8"?>
<!-- Generator: Adobe Illustrator 19.0.0, SVG Export Plug-In . SVG Version: 6.00 Build 0)  -->
<svg version="1.1" id="layer" xmlns="http://www.w3.org/2000/svg" xmlns:xlink="http://www.w3.org/1999/xlink" x="0px" y="0px"
	 viewBox="-153 -46 652 652" style="enable-background:new -153 -46 652 652;" xml:space="preserve">
<style type="text/css">
	.st0{fill:#002E64;}
	.st1{fill:#A19060;}
</style>
<path class="st0" d="M313.2,274.6c-1.1-0.2-1.3,0-1.5,0.1c-5.7,6.4-11.1,10.7-16,12.8c-5,2.3-10.9,3.5-17.4,3.5
	c-14.8,0-27.9-6.3-33.6-16.8c-3-5.4-4.3-11.8-4.3-19.2c0-8.9,1.5-16.3,4.6-22.3c3.1-6,7.3-10.3,12.8-13.1c5.7-2.9,12.1-4.1,19.2-4.1
	c9.9,0,23.8,5.5,32.8,10.3c0.7,0.3,0.8,0.4,1,0.4c0.6,0,0.6-0.8,0.6-1l-0.3-3.8c0-1-0.5-1.4-1.2-1.7c-10.2-5.8-23.1-8.6-33.7-8.6
	c-10.5,0-19.2,1.9-27.2,5.7c-7.9,3.7-14.1,8.9-18.8,15.8c-4.5,6.7-6.8,14.3-6.8,22.3c0,10.1,3.4,18.8,10.4,26.2
	c9.2,10,22.3,15,39,15c9.4,0,17.4-1.6,24.2-5c6.5-3.3,12.4-8.3,17.3-15.1C314.3,275.4,314.2,275.1,313.2,274.6 M336.2,221
	c2.2,0,4-0.5,5.5-1.7c1.5-1.2,2.2-2.6,2.2-4.4c0-1.6-0.7-3.1-2.2-4.2c-1.5-1.2-3.3-1.9-5.5-1.9c-2,0-3.9,0.7-5.4,1.9
	c-1.5,1.1-2.2,2.6-2.2,4.2c0,1.8,0.8,3.2,2.3,4.4C332.4,220.4,334.1,221,336.2,221 M342.5,237.6c0,0-1-0.1-2.5-0.1
	c-3.5,0-9.8,0.5-10,3.9v52.9c0,0,0.9,0.1,2.4,0.1c3.5,0,9.8-0.5,10.1-3.9V237.6z M399.9,284h-1.4c-1.8,2-2.9,2.9-4.2,3.7
	c-1.5,0.8-3.1,1.2-4.9,1.2c-2.1,0-3.7-0.6-4.9-1.8c-1.4-1.3-2-3.7-2-7.3v-36.2h13.7c1.3,0,2.6-1,2.6-2.2c0-1.2-1.2-2.1-2.6-2.1
	h-13.7v-18.4H381c-3.3,0-10.7,0.1-11,3.9v14.5h-8.4c-1.5,0-2.7,0.9-2.7,2.1c0,1.2,1.2,2.2,2.7,2.2h8.4v37.5c0,4,0.5,7,1.6,8.9
	c2.2,3.8,7.1,6,11.8,6c3.4,0,6.8-1,9.9-3c3.1-1.8,5.4-4.6,7.2-8.1L399.9,284z M469,240.8c-0.5-1-2.3-1.5-3.5-1.5c-0.8,0-1.6,0.4-2,1
	c-0.3,0.4-1.3,2.2-2.9,5.1l-17.4,34.4c-16.4-27.5-17.9-29.8-23.9-40.4c-0.1-0.1-9.2,2.3-9.2,6.2c0,1.3,1.4,3.2,2.2,4.6l24.9,42
	l-4.9,9.7c-1.8,3.6-3.5,6-5.3,7.2c-1.9,1.3-3.5,1.9-5,1.9c-0.4,0-1.8-0.2-3.8-0.9c-2.9-0.9-5.1-1.3-6.8-1.3c-2.3,0-4.2,0.5-5.7,1.5
	c-1.4,1.1-2,2.4-2,4.1c0,1.8,1,3.3,2.9,4.7c1.9,1.4,4.4,2.1,7.4,2.1c4.1,0,8.3-1.4,12.8-4.1c4.4-2.7,7.9-6.8,10.6-12.2
	c13.1-25.5,21.6-41.4,29.4-57.6c0.4-0.9,2-3.7,2.5-5.2C469,241.4,469,241,469,240.8"/>
<path class="st1" d="M106.6,272.7c-11.4,6.4-18.7,21.2-33.6,21.2c-5.5,0-8.3-2.8-9.5-7c-24.1,21.5-60.2,6.1-33.9-34.5
	c4.1-6.4,13.8-0.2,9.6,6.2c-22.9,35.5,14.6,34.5,27,4.5c0.7-2.2,1.4-4.1,1.8-5.3c2.9-7.4,13.1-4,10.8,3.7c-0.6,2-1.2,3.9-2,5.8
	c-0.7,2.3-1.5,5.1-2.1,7.9c-0.7,3.2-0.9,5.8-0.7,7.4c10-1.4,22-21.9,34-21.9c8.6,0,9.8,5.9,9.4,12.3c4.6-5.8,9.9-10.7,19.3-10.7
	c15.8,0,20,21.9,23.2,21.9c3.9,0,9.8-7,10.2-7.5c4.6-6.1,13.7,0.8,9.1,6.9c0,0-0.6,0.8-1.6,1.9c-4.9,5.4-11.5,10.2-19.1,10.2
	c-11.6,0-13.2-22-22.3-22c-10.9,0-16.2,20.8-25,20.8C101,294.4,106.3,278.1,106.6,272.7 M23.5,325.1c-35.2,1.3-69.5,5.9-100.5,14.8
	c-5.2,1.5-40.3,12.6-40.3,21.5c0,0.9,2.9,6.4,18.5,12c14,5,35.1,8.7,62.2,8.7c13.2,0,87.7-2.8,87.7-27.8
	C51,346.5,37.8,335.1,23.5,325.1 M49.9,206.5c57.7-19.7,17.6-45.7-48-28.3c-40.2,10.7-68.5,28.5-68.5,47.8c0,34.4,55,59.7,93.8,85.1
	c58.2-1.7,123.9,6.2,174.4,17.5c8.9,2,5.9,15.3-3,13.3c-46.2-10.4-99.8-17.2-152.8-17.3c11.4,9.5,18.8,19.2,18.8,29.6
	c0,38.2-78,41.4-101.3,41.4c-16.8,0-94.4-4.2-94.4-34.4c0-32.6,90.1-45,135.4-48.8c-6-3.7-11.1-6.7-13.9-8.3
	C-45.3,283-80.2,260-80.2,226c0-56.6,151.6-90,169.3-49.5c10.1,23.1-17.9,37.2-34.8,43C45.7,222.4,41.3,209.5,49.9,206.5"/>
</svg>
